<svg xmlns="http://www.w3.org/2000/svg" width="250" height="53" viewBox="0 0 250 53">
<!-- SVG created with Arrow, by QuiverAI (https://quiver.ai) -->
  <path d="m249.9 0h-249.7v52.86h249.7v-52.86z" fill="#000"/>
  <path d="m69.71 45.09 0.97-2.58c1.45 0.9 3.13 1.37 4.84 1.38 1.79 0 2.49-0.56 2.49-1.36 0-2.4-8-0.72-8-5.92 0-2.4 1.8-4.4 5.8-4.4 1.7 0 3.46 0.4 4.77 1.2l-0.87 2.58c-1.25-0.71-2.55-1.1-3.85-1.1-1.8 0-2.47 0.66-2.47 1.48 0 2.36 8 0.7 8 5.84 0 2.36-1.83 4.36-5.83 4.36-2.15 0.04-4.37-0.58-5.85-1.48z" fill="#FEFFFE"/>
  <path d="m85.61 39.41c0-4.52 3-7.28 7.4-7.28 2.52 0 4.6 0.92 5.88 2.64l-2.12 2c-1-1.24-2.24-1.8-3.6-1.8-2.76 0-4.24 1.8-4.24 4.4s1.48 4.4 4.24 4.4c1.44 0 2.64-0.6 3.6-1.8l2.12 2c-1.32 1.76-3.36 2.6-5.88 2.6-4.4 0.04-7.4-2.68-7.4-7.16z" fill="#FEFFFE"/>
  <path d="m103.6 32.41h2.96v13.92h-2.96v-13.92z" fill="#FEFFFE"/>
  <path d="m122.5 43.77v2.56h-10.08v-13.92h9.88v2.56h-6.84v3.04h6v2.48h-6v3.24h7.04v0.04z" fill="#FEFFFE"/>
  <path d="m140 32.41v13.92h-2.6l-7.04-8.6v8.6h-2.96v-13.92h2.56l7.12 8.8v-8.8h2.92z" fill="#FEFFFE"/>
  <path d="m144.9 39.41c0-4.52 3-7.28 7.4-7.28 2.52 0 4.6 0.92 5.88 2.64l-2.12 2c-1-1.24-2.24-1.8-3.6-1.8-2.76 0-4.24 1.8-4.24 4.4s1.48 4.4 4.24 4.4c1.44 0 2.64-0.6 3.6-1.8l2.12 2c-1.32 1.76-3.36 2.6-5.88 2.6-4.44 0.04-7.4-2.68-7.4-7.16z" fill="#FEFFFE"/>
  <path d="m173.3 43.77v2.56h-10.08v-13.92h9.88v2.56h-6.84v3.04h6v2.48h-6v3.24h7.04v0.04z" fill="#FEFFFE"/>
  <path d="m198.9 32.41v13.92h-2.88v-5.68h-6.24v5.68h-2.88v-13.92h2.88v5.52h6.24v-5.52h2.88z" fill="#FEFFFE"/>
  <path d="m205.3 40.01v-7.64h2.96v7.44c0 2.68 1.12 3.92 3.28 3.92 2.2 0 3.28-1.24 3.28-3.92v-7.44h2.92v7.6c0 4.12-2.32 6.56-6.24 6.56-3.88 0.08-6.2-2.32-6.2-6.52z" fill="#FEFFFE"/>
  <path d="m236.5 42.49c0 2.52-1.92 3.84-5.6 3.84h-6.64v-13.92h6.24c3.44 0 5.2 1.4 5.2 3.76 0.04 1.27-0.61 2.46-1.72 3.08 1.56 0.48 2.52 1.6 2.52 3.24zm-9.28-7.68v3.52h2.96c1.72 0 2.6-0.56 2.6-1.76s-0.92-1.76-2.6-1.76h-2.96zm6.28 7.36c0-1.32-0.96-1.88-2.8-1.88h-3.48v3.72h3.48c1.84 0 2.8-0.56 2.8-1.84z" fill="#FEFFFE"/>
  <path d="m69.61 13.57c0-5.04 3.12-7.8 7.4-7.8 2.6 0 4.6 0.96 5.8 2.44l-2 2.2c-1.04-1.2-2.24-1.8-3.6-1.8-2.76 0-4.32 2-4.32 4.8s1.56 4.68 4.32 4.68c1.6 0 2.68-0.76 3.6-1.76l2 2.2c-1.4 1.72-3.28 2.48-5.8 2.48-4.4 0-7.4-2.76-7.4-7.44z" fill="#FEFFFE"/>
  <path d="m92.21 13.41c0-4.6 3.04-7.6 7.8-7.6 4.68 0 7.48 2.88 7.48 7.44s-3.04 7.52-7.72 7.52-7.56-2.88-7.56-7.36zm12-0.2c0-2.96-1.68-4.76-4.44-4.76-2.88 0-4.52 1.8-4.52 4.76s1.68 4.76 4.44 4.76c2.84 0 4.52-1.8 4.52-4.76z" fill="#FEFFFE"/>
  <path d="m132.7 6.09v14.28h-3.12v-8.36l-3.76 7.04h-1.68l-3.88-6.96v8.28h-3.04v-14.28h2.8l5 9.52 4.88-9.52h2.8z" fill="#FEFFFE"/>
  <path d="m155.5 11.33c0 3.88-2.16 5.52-6.28 5.52h-2.2v3.44h-3.2v-13.8h5.72c4-0.4 5.96 1.4 5.96 4.84zm-3.08 0c0-1.88-0.96-2.72-3.08-2.72h-2.32v5.92h1.92c2.36 0.08 3.48-1.04 3.48-3.2z" fill="#FEFFFE"/>
  <path d="m166.2 13.81v-7.32h3.04v7.24c0 2.88 1.2 4.16 3.36 4.16 2.24 0 3.36-1.32 3.36-4.16v-7.24h2.88v7.24c0 4.4-2.32 6.92-6.32 6.92-3.92 0.08-6.32-2.44-6.32-6.84z" fill="#FEFFFE"/>
  <path d="m199.8 8.77h-4.4v11.56h-3.04v-11.56h-4.32v-2.36h11.68v2.36h0.08z" fill="#FEFFFE"/>
  <path d="m220.9 18.01v2.36h-10.72v-13.92h10.36v2.36h-7.32v3.44h6.76v2.28h-6.76v3.52h7.68v-0.04z" fill="#FEFFFE"/>
  <path d="m238.8 16.41c-0.2 0.04-0.44 0.04-0.68 0.04h-2.68v3.8h-3.04v-13.8h6.12c4.16 0 5.88 2 5.88 5.28 0 2.36-0.96 3.92-2.64 4.76l2.68 3.88h-3.52l-2.12-3.96zm2.44-4.68c0-2-0.96-3-3.24-3h-2.68v5.68h2.28c2.44 0.08 3.64-1.04 3.64-2.68z" fill="#FEFFFE"/>
  <path d="m52.81 46.25-2.8-4.92h-37.6l15.12-26.28 0.16-0.28 0.16 0.28 13.68 23.84h6.72l-18.92-32.72h-1.04l-22.28 40.08h46.8z" fill="#FEFFFE"/>
</svg>