<svg xmlns="http://www.w3.org/2000/svg" width="250" height="250" viewBox="0 0 250 250">
<!-- SVG created with Arrow, by QuiverAI (https://quiver.ai) -->
  <path d="m69.41 112.3c0-5.14 3.37-7.11 7.36-7.11 2.92 0 5.01 1.11 6.15 2.74l-1.73 2.4c-1.1-1.58-2.48-2.25-4.27-2.25-2.93 0-4.45 1.82-4.45 4.35 0 2.43 1.42 4.4 4.42 4.4 2.03 0 3.3-1 4.32-2.19l1.66 2.45c-1.38 1.62-3.46 2.42-6.15 2.42-4.53 0-7.31-2.73-7.31-7.21z" fill="#000"/>
  <path d="m92.04 112.3c0-4.65 3.03-7.11 7.75-7.11 5.02 0 7.14 3.19 7.14 7.04 0 4.4-2.78 7.2-7.45 7.2-4.77 0-7.44-2.8-7.44-7.13zm11.83-0.1c0-2.67-1.43-4.37-4.23-4.37-2.98 0-4.5 1.7-4.5 4.4 0 2.6 1.37 4.57 4.27 4.57 3.13 0 4.46-1.87 4.46-4.6z" fill="#000"/>
  <path d="m117.6 105.4h2.65l5.14 8.78 4.55-8.78h2.65v13.64h-3.03v-7.94l-3.6 6.69h-1.67l-4.01-6.72v7.97h-2.68v-13.64z" fill="#000"/>
  <path d="m143.7 105.4h6.39c4.11 0 5.51 2.42 5.51 4.97 0 3-1.87 5.05-5.54 5.05h-3.3v3.62h-3.06v-13.64zm6.16 7.67c1.97 0 2.69-1.35 2.69-2.75 0-1.5-0.82-2.63-2.56-2.63h-3.23v5.38h3.1z" fill="#000"/>
  <path d="m166.2 112.8v-7.32h3.08v7.07c0 2.77 1.15 4.15 3.25 4.15 2.4 0 3.25-1.55 3.25-4.35v-6.87h2.83v7.19c0 4.38-2.28 6.68-6.13 6.68-3.82 0-6.28-2.1-6.28-6.55z" fill="#000"/>
  <path d="m192.5 108.1h-4.58v-2.67h11.86v2.67h-4.3v10.97h-2.98v-10.97z" fill="#000"/>
  <path d="m209.9 105.4h10.42v2.37h-7.42v3.3h6.42v2.05h-6.42v3.55h7.62v2.37h-10.62v-13.64z" fill="#000"/>
  <path d="m232 105.4h6.2c4.11 0 5.58 2.22 5.58 4.89 0 2-0.9 3.53-2.55 4.4l2.58 4.35h-3.38l-1.95-3.6c-0.38 0.05-0.78 0.08-1.2 0.08h-2.35v3.52h-2.93v-13.64zm5.73 7.72c1.95 0 2.85-1.3 2.85-2.83 0-1.45-0.83-2.6-2.58-2.6h-3.07v5.43h2.8z" fill="#000"/>
  <path d="m69.18 143.2 0.93-2.7c1.57 0.97 3.1 1.52 5.08 1.52 1.2 0 2.65-0.45 2.65-1.52 0-1-1.18-1.28-2.45-1.58-2.83-0.65-5.38-1.6-5.38-4.25 0-2.5 2.4-4.05 5.35-4.05 1.9 0 3.6 0.45 5.13 1.22l-1 2.55c-1.38-0.85-2.98-1.32-4.18-1.32-0.82 0-2.25 0.35-2.25 1.4 0 0.82 0.93 1.22 2.5 1.62 2.63 0.68 5.33 1.58 5.33 4.18 0 2.75-2.78 4.2-5.6 4.2-2.73 0-4.51-0.75-6.11-1.27z" fill="#000"/>
  <path d="m85.34 137.8c0-4.7 3.07-7 7.35-7 2.7 0 4.6 1.05 5.8 2.5l-1.65 2.4c-1.15-1.43-2.35-2.18-4.12-2.18-2.75 0-4.3 1.75-4.3 4.33 0 2.5 1.5 4.25 4.25 4.25 2.05 0 3.22-1 4.22-2.2l1.7 2.3c-1.37 1.6-3.25 2.43-5.97 2.43-4.53 0-7.28-2.53-7.28-6.83z" fill="#000"/>
  <path d="m103.1 130.8h3.1v13.65h-3.1v-13.65z" fill="#000"/>
  <path d="m112 130.8h10.42v2.4h-7.42v3.3h6.42v2.05h-6.42v3.55h7.62v2.35h-10.62v-13.65z" fill="#000"/>
  <path d="m127 130.8h2.7l7.2 8.65v-8.65h2.8v13.65h-2.55l-7.35-8.85v8.85h-2.8v-13.65z" fill="#000"/>
  <path d="m144.5 137.8c0-4.7 3.08-7 7.35-7 2.7 0 4.6 1.05 5.8 2.5l-1.65 2.4c-1.15-1.43-2.35-2.18-4.12-2.18-2.75 0-4.3 1.75-4.3 4.33 0 2.5 1.5 4.25 4.25 4.25 2.05 0 3.22-1 4.22-2.2l1.7 2.3c-1.37 1.6-3.25 2.43-5.97 2.43-4.53 0-7.28-2.53-7.28-6.83z" fill="#000"/>
  <path d="m162.6 130.8h10.15v2.4h-7.15v3.3h6.42v2.05h-6.42v3.55h7.62v2.35h-10.62v-13.65z" fill="#000"/>
  <path d="m186.9 130.8h3v6.2h6.35v-6.2h3.05v13.65h-3.05v-5.15h-6.35v5.15h-3v-13.65z" fill="#000"/>
  <path d="m205.3 138.2v-7.4h3.08v7.1c0 2.45 1.02 3.9 3.12 3.9 2.25 0 3.3-1.45 3.3-4.4v-6.6h2.83v7.25c0 4.3-2.38 6.55-6.23 6.55-3.8 0-6.1-2.1-6.1-6.4z" fill="#000"/>
  <path d="m223.7 130.8h7.5c3.2 0 4.8 1.47 4.8 3.77 0 1.13-0.68 2.13-1.8 2.88 1.6 0.65 2.45 1.85 2.45 3.3 0 2.25-1.65 3.7-5 3.7h-7.95v-13.65zm6.87 5.65c1.33 0 2.13-0.85 2.13-1.78 0-1.07-0.78-1.62-2.3-1.62h-3.7v3.4h3.87zm0.63 5.6c1.47 0 2.22-0.75 2.22-1.8s-0.82-1.75-2.27-1.75h-4.45v3.55h4.5z" fill="#000"/>
  <path d="m28.31 105-22.55 39.46h46.85l-3.08-5.38h-37l14.68-24.68 13.8 23.18h6.95l-18.65-32.58c-0.35-0.6-0.65-0.6-1 0z" fill="#000"/>
</svg>