<svg xmlns="http://www.w3.org/2000/svg" width="250" height="250" viewBox="0 0 250 250">
<!-- SVG created with Arrow, by QuiverAI (https://quiver.ai) -->
  <path d="m17.48 116.7c-5.01 0-11.14-3.33-11.14-10.84 0-6.8 5.45-10.97 11.01-10.97h0.43c3.98 0 7.01 1.35 8.18 3.53l0.52 0.98-3.56 2.71-0.68-0.97c-1.05-1.49-3.15-1.77-4.53-1.77h-0.2c-4.05 0-6.44 3.24-6.44 6.43 0 3.69 2.52 6.5 6.41 6.5h0.23c2.33 0 3.86-0.81 4.91-2.33l0.62 0.42 0.63-0.39 1.76 2.71-0.55 0.68c-1.87 2.39-4.36 3.31-7.6 3.31z" fill="#000"/>
  <path d="m47.98 116.7c-7.27 0-11.71-4.8-11.71-10.9s4.44-10.91 11.71-10.91c7.28 0 11.72 4.81 11.72 10.91s-4.44 10.9-11.72 10.9zm0-4.47c4.74 0 6.84-3.27 6.84-6.43 0-3.43-1.87-6.56-6.84-6.56-4.47 0-6.83 3.13-6.83 6.56 0 3.16 2.1 6.43 6.83 6.43z" fill="#000"/>
  <path d="m71.49 116.5v-21.28h4.08l7.84 13.23 8.2-13.23h3.63v21.28h-4.51v-12.27l-5.82 10.14h-2.18l-6.74-9.94v12.07h-4.5z" fill="#000"/>
  <path d="m107.8 116.3v-21.11h10.37c6.61 0 8.15 4.74 8.15 7.84 0 4.9-3.27 7.96-8.42 7.96h-4.77v5.31h-5.33zm9.22-9.28c3.27 0 4.51-1.55 4.51-3.9 0-2.15-1.01-3.95-4.04-3.95h-4.66v7.85h4.19z" fill="#000"/>
  <path d="m147 116.7c-7.91 0-10.05-5.07-10.05-9.29v-12.25h5.33v11.43c0 3.87 1.38 5.91 4.72 5.91 3.33 0 4.61-2.01 4.61-5.91v-11.43h4.79v11.83c0 5.27-2.42 9.71-9.4 9.71z" fill="#000"/>
  <path d="m173.6 116.5v-17.01h-6.7v-4.27h18.87v4.27h-6.84v17.01h-5.33z" fill="#000"/>
  <path d="m196 116.5v-21.28h15.87v3.77h-10.99v4.76h9.68v3.6h-9.68v5.38h11.29v3.77h-16.17z" fill="#000"/>
  <path d="m224.8 116.3v-21.11h10.37c5.93 0 8.25 3.9 8.25 7.53 0 3.4-1.74 5.7-3.99 6.98l4.47 6.6h-5.27l-3.63-5.93h-5.21v5.93h-4.99zm9.49-9.48c2.93 0 4.34-1.55 4.34-3.9 0-2.15-1.21-3.75-3.93-3.75h-4.91v7.65h4.5z" fill="#000"/>
  <path d="m14.61 154.5c-3.87 0-6.5-1.21-8.2-2.35l1.97-3.87c2.11 1.54 4.33 2.29 6.65 2.29h0.2c2.78 0 3.99-1.14 3.99-2.39 0-1.08-0.81-1.85-4.34-2.46-5.14-0.95-7.86-2.43-7.86-6.06s2.72-6.29 8.06-6.29h0.37c3.06 0 5.31 0.75 6.86 1.73l-1.28 4.05c-1.61-1.11-3.69-1.85-5.7-1.85h-0.2c-2.62 0-3.57 1.08-3.57 2.26 0 1.01 1.15 1.62 4.55 2.23 5.2 0.98 7.66 2.58 7.66 6.18 0 3.63-3.06 6.53-8.79 6.53h-0.37z" fill="#000"/>
  <path d="m39.28 154.5c-5.01 0-10.34-3.33-11.79-9.06v-2.45c1.21-6.16 6-9.62 11.33-9.62h0.43c3.97 0 7 1.35 8.55 3.53l0.51 0.67-3.13 2.8c-1.31-2.08-3.15-3.2-5.77-3.2h-0.2c-4.05 0-6.7 2.86-6.7 6.43 0 3.7 2.32 6.76 6.47 6.76h0.23c2.32 0 4.2-1.01 5.48-2.89l3.23 3.16c-2.11 2.69-4.8 3.87-8.64 3.87z" fill="#000"/>
  <path d="m53.78 154.3v-20.66h4.89v20.66h-4.89z" fill="#000"/>
  <path d="m65.47 154v-20.36h16.41v3.59h-11.99v4.52h10.18v3.43h-10.18v5.23h12.3v3.59h-16.72z" fill="#000"/>
  <path d="m88.34 154v-20.36h4.08l10.5 13.1v-13.1h4.67v20.36h-4.08l-10.79-12.45v12.45h-4.38z" fill="#000"/>
  <path d="m124.2 154.5c-6.13 0-10.86-4.07-10.86-10.57 0-6.16 4.6-10.56 11.03-10.56 3.98 0 6.6 1.35 8.34 3.53l-3.13 3c-1.31-1.88-2.99-2.73-5.07-2.73-4.31 0-6.32 2.93-6.32 6.43 0 3.7 2.32 6.76 6.47 6.76 2.65 0 4.13-1.21 5.24-2.76l2.99 3.17c-2.18 2.65-4.7 3.73-8.69 3.73z" fill="#000"/>
  <path d="m137.9 154v-20.36h16.41v3.59h-11.52v4.52h9.82v3.43h-9.82v5.23h11.83v3.59h-16.72z" fill="#000"/>
  <path d="m172 154v-20.36h4.9v8.44h9.35v-8.44h4.54v20.36h-4.54v-8.15h-9.35v8.15h-4.9z" fill="#000"/>
  <path d="m207.5 154.5c-7.58 0-9.83-4.81-9.83-8.85v-12.07h5.11v11.26c0 3.74 1.54 5.59 4.72 5.59 3.16 0 4.64-1.85 4.64-5.59v-11.26h4.66v12.07c0 4.55-2.52 8.85-9.3 8.85z" fill="#000"/>
  <path d="m224.1 154v-20.36h11.83c4.8 0 6.95 2.72 6.95 5.44 0 1.65-0.78 3.3-2.46 4.38 2.25 0.97 3.5 3.05 3.5 5.3 0 3.17-2.25 5.24-7.39 5.24h-12.43zm11.12-11.85c2.08 0 3.13-0.98 3.13-2.43 0-1.35-1.05-2.49-3.13-2.49h-6.42v4.92h6.42zm0.41 8.26c2.32 0 3.29-1.04 3.29-2.68 0-1.48-1.18-2.63-3.29-2.63h-6.83v5.31h6.83z" fill="#000"/>
</svg>